<mxfile host="app.diagrams.net" modified="2023-07-21T09:01:22.604Z" agent="Mozilla/5.0 (Windows NT 10.0; Win64; x64) AppleWebKit/537.36 (KHTML, like Gecko) Chrome/114.0.0.0 Safari/537.36 Edg/114.0.1823.82" etag="eOCcZShKMlPuan1VrsLq" version="21.6.2" type="github">
  <diagram name="第 1 页" id="bX1XAtfb4kWLFVjf-5i0">
    <mxGraphModel dx="1246" dy="666" grid="1" gridSize="10" guides="1" tooltips="1" connect="1" arrows="1" fold="1" page="1" pageScale="1" pageWidth="827" pageHeight="1169" math="0" shadow="0">
      <root>
        <mxCell id="0" />
        <mxCell id="1" parent="0" />
        <mxCell id="BO7hRAKgIpjlX32Vf64b-1" value="" style="rounded=0;whiteSpace=wrap;html=1;" vertex="1" parent="1">
          <mxGeometry x="160" y="80" width="480" height="330" as="geometry" />
        </mxCell>
        <mxCell id="BO7hRAKgIpjlX32Vf64b-3" value="awblm: Amedac Workbench long running manager" style="text;strokeColor=none;align=center;fillColor=none;html=1;verticalAlign=middle;whiteSpace=wrap;rounded=0;" vertex="1" parent="1">
          <mxGeometry x="210" y="40" width="340" height="30" as="geometry" />
        </mxCell>
      </root>
    </mxGraphModel>
  </diagram>
</mxfile>
